PathFileType        4      (X/Y/Z)      Static.trc         
DataRate	CameraRate	NumFrames	NumMarkers	Units	OrigDataRate	OrigDataStartFrame	OrigNumFrames
100.0	100.0	10	37	mm	100.0	1	267
Frame#	Time	T2			T10			MANU			LASI			RASI			SACR			LTHI			LKAX			LKD1			LKD2			LKNE			LTIB			LANK			LMED			LHEE			LTOE			LD1M			LD5M			RTHI			RKAX			RKD1			RKD2			RKNE			RTIB			RANK			RMED			RHEE			RTOE			RD1M			RD5M			RHJC			LHJC			RKJC			LKJC			MASI			RAJC			LAJC			
		X1	Y1	Z1	X2	Y2	Z2	X3	Y3	Z3	X4	Y4	Z4	X5	Y5	Z5	X6	Y6	Z6	X7	Y7	Z7	X8	Y8	Z8	X9	Y9	Z9	X10	Y10	Z10	X11	Y11	Z11	X12	Y12	Z12	X13	Y13	Z13	X14	Y14	Z14	X15	Y15	Z15	X16	Y16	Z16	X17	Y17	Z17	X18	Y18	Z18	X19	Y19	Z19	X20	Y20	Z20	X21	Y21	Z21	X22	Y22	Z22	X23	Y23	Z23	X24	Y24	Z24	X25	Y25	Z25	X26	Y26	Z26	X27	Y27	Z27	X28	Y28	Z28	X29	Y29	Z29	X30	Y30	Z30	X31	Y31	Z31	X32	Y32	Z32	X33	Y33	Z33	X34	Y34	Z34	X35	Y35	Z35	X36	Y36	Z36	X37	Y37	Z37	
1	0.0	265.63292	1100.74236	-12.78797	280.26912	916.00635	-7.89689	378.36803	1083.66214	-0.85192	435.38853	723.51413	-77.21287	433.30697	737.9571	95.5087	296.24152	768.10974	0.40316	394.19371	431.51446	-157.35347	389.24787	380.37908	-217.71489	480.31292	391.10276	-122.63739	411.0962	279.36991	-137.31412	389.43857	369.0485	-125.47181	319.11653	159.95324	-183.85877	294.29475	68.64098	-144.89768	315.32707	71.41315	-70.78037	246.08438	20.46377	-110.42558	421.78983	30.7023	-134.5575	416.76847	15.98777	-84.59434	381.41908	17.67817	-175.8287	403.45689	447.28925	167.065	408.03206	355.83285	226.94728	482.50594	413.21337	122.35367	454.77236	284.09863	120.9691	401.35185	361.4603	128.94282	307.95089	148.51247	155.87808	293.49049	62.10671	111.81429	321.65769	69.24697	39.18561	250.94913	19.30606	68.29414	423.64388	28.72421	108.10512	414.01264	13.99362	52.73838	384.01413	15.49506	147.47263	374.19005	687.30926	76.78519	375.73921	676.56038	-51.75922	398.12693	364.177	81.63036	389.535	363.31838	-78.82252	434.34775	730.73562	9.14792	305.12916	57.61734	75.33443	302.52336	62.1082	-108.62247	
2	0.01	265.54819	1100.7179	-12.63313	280.26003	915.96408	-7.78108	378.29933	1083.61687	-0.78103	435.3854	723.53457	-77.24642	433.33867	737.96434	95.46606	296.25922	768.06366	0.42197	394.20317	431.45209	-157.30992	389.36231	380.36508	-217.73021	480.35396	391.01747	-122.62746	411.1823	279.34212	-137.32466	389.51645	368.99883	-125.49757	319.14276	159.95796	-183.85327	294.30391	68.63939	-144.90359	315.32868	71.43051	-70.78079	246.0788	20.47389	-110.44237	421.78922	30.7092	-134.56822	416.77292	15.99655	-84.61057	381.41776	17.68585	-175.83772	403.50588	447.27758	167.05463	408.07735	355.82366	226.93353	482.55665	413.19547	122.34193	454.80453	284.09056	120.95331	401.39688	361.45649	128.93119	307.9612	148.51766	155.86805	293.49225	62.1207	111.80773	321.66502	69.23552	39.16331	250.93226	19.31978	68.28071	423.64522	28.73676	108.1003	414.00558	13.99459	52.73927	384.01851	15.51107	147.46918	374.24409	687.29533	76.7548	375.76734	676.5562	-51.78373	398.17176	364.17584	81.61889	389.5944	363.2503	-78.85051	434.36204	730.74946	9.10982	305.13262	57.61867	75.31992	302.52728	62.11814	-108.62496	
3	0.02	265.46566	1100.6914	-12.48187	280.24595	915.92363	-7.66558	378.23055	1083.57131	-0.71005	435.38257	723.55036	-77.27619	433.36922	737.96773	95.42756	296.27481	768.01707	0.43529	394.21816	431.3888	-157.26936	389.47443	380.34715	-217.7433	480.3988	390.93262	-122.6161	411.26361	279.31282	-137.33285	389.59379	368.94984	-125.52031	319.16733	159.95819	-183.84812	294.31241	68.63739	-144.90801	315.33158	71.4437	-70.77983	246.07211	20.48106	-110.45144	421.78868	30.71485	-134.57693	416.77524	16.00213	-84.62213	381.41655	17.69148	-175.84437	403.55394	447.26497	167.04568	408.11845	355.81496	226.92216	482.60325	413.17704	122.33141	454.83355	284.08113	120.9415	401.43795	361.45123	128.92164	307.97127	148.52087	155.86055	293.49294	62.13264	111.80307	321.67235	69.22524	39.14579	250.91704	19.3313	68.26955	423.6468	28.74726	108.0962	413.99979	13.99569	52.73914	384.02246	15.52473	147.46714	374.29507	687.2791	76.72804	375.79348	676.54914	-51.80485	398.21277	364.17229	81.60944	389.65416	363.18524	-78.8752	434.3759	730.75904	9.07568	305.13563	57.61962	75.30878	302.53152	62.12564	-108.62607	
4	0.03	265.38684	1100.66151	-12.33634	280.22575	915.88516	-7.5503	378.16202	1083.52583	-0.64	435.38273	723.55955	-77.30102	433.39991	737.96706	95.3944	296.28851	767.96966	0.43988	394.24116	431.3248	-157.23416	389.58177	380.32361	-217.75374	480.44888	390.84915	-122.60347	411.33691	279.28194	-137.33862	389.66958	368.90238	-125.53916	319.19041	159.95204	-183.84429	294.32047	68.63429	-144.9109	315.33573	71.45076	-70.77801	246.06301	20.48418	-110.44908	421.78876	30.71921	-134.58342	416.77459	16.0035	-84.62804	381.416	17.69457	-175.8483	403.6014	447.25143	167.03828	408.15399	355.80769	226.91346	482.64399	413.15833	122.32177	454.8585	284.07042	120.93435	401.47362	361.44444	128.91427	307.98149	148.5215	155.85603	293.49249	62.14165	111.80052	321.67939	69.21753	39.13432	250.90404	19.33918	68.26174	423.64916	28.75465	108.09228	413.99596	13.99649	52.7381	384.02571	15.5345	147.46609	374.34373	687.2605	76.70607	375.81943	676.5378	-51.82141	398.24846	364.16576	81.60209	389.714	363.12535	-78.89558	434.39132	730.76331	9.04669	305.13805	57.62046	75.30178	302.53618	62.12929	-108.62607	
5	0.04	265.31328	1100.62781	-12.19728	280.20213	915.84727	-7.43572	378.09404	1083.48146	-0.57264	435.38976	723.5631	-77.32172	433.4331	737.96472	95.36559	296.30147	767.92145	0.4355	394.27242	431.26196	-157.20667	389.6813	380.29506	-217.76238	480.50407	390.76957	-122.59162	411.40037	279.25024	-137.34324	389.74243	368.85799	-125.55464	319.21325	159.94016	-183.84282	294.32896	68.62966	-144.91303	315.34025	71.45167	-70.77692	246.05102	20.48349	-110.4365	421.79022	30.72299	-134.58842	416.77151	16.00149	-84.63005	381.41658	17.69567	-175.85014	403.649	447.23797	167.03183	408.18463	355.80284	226.90597	482.67956	413.14032	122.31201	454.88057	284.05958	120.93017	401.50484	361.43712	128.90762	307.99226	148.5202	155.85324	293.49171	62.14767	111.79903	321.68617	69.21363	39.12718	250.89309	19.34308	68.25735	423.65278	28.75858	108.0874	413.99406	13.99604	52.73688	384.02817	15.53965	147.46467	374.39303	687.24092	76.68786	375.84927	676.52255	-51.83432	398.27992	364.15727	81.59535	389.77335	363.07264	-78.91208	434.41143	730.76391	9.02193	305.14028	57.62178	75.29753	302.54126	62.1288	-108.62616	
6	0.05	265.24663	1100.59067	-12.06464	280.17885	915.80861	-7.32323	378.02663	1083.43953	-0.5084	435.40602	723.5635	-77.33865	433.46959	737.96315	95.34001	296.31488	767.87266	0.42367	394.31137	431.20299	-157.18806	389.76991	380.26335	-217.76952	480.56341	390.69765	-122.58252	411.45336	279.21855	-137.34734	389.81081	368.81842	-125.56664	319.23645	159.92448	-183.84361	294.33836	68.62392	-144.91455	315.34476	71.44777	-70.77711	246.03764	20.4798	-110.41864	421.79329	30.72648	-134.59179	416.76727	15.99735	-84.62968	381.41815	17.69548	-175.85003	403.69706	447.22579	167.02584	408.21189	355.80038	226.89828	482.71223	413.12374	122.30165	454.90142	284.04953	120.92726	401.53362	361.43026	128.90037	308.00355	148.5179	155.85069	293.49146	62.15069	111.79756	321.69321	69.21342	39.12207	250.88416	19.34394	68.25574	423.65758	28.75914	108.08138	413.99365	13.99373	52.73605	384.02984	15.54035	147.46221	374.44494	687.22196	76.672	375.88613	676.50499	-51.84451	398.30941	364.1483	81.58793	389.8315	363.02885	-78.9246	434.43781	730.76332	9.00068	305.14297	57.62347	75.29435	302.54683	62.12503	-108.6267	
7	0.06	265.18801	1100.55117	-11.93815	280.15893	915.76876	-7.21453	377.95961	1083.40106	-0.44554	435.43095	723.56344	-77.35088	433.50794	737.96394	95.31751	296.3303	767.82338	0.40626	394.35581	431.1497	-157.17592	389.84537	380.23071	-217.77439	480.62392	390.63545	-122.57547	411.49654	279.18756	-137.35036	389.8728	368.78406	-125.5742	319.25955	159.90721	-183.84536	294.34801	68.61814	-144.91486	315.34962	71.44167	-70.77749	246.02609	20.4741	-110.40229	421.79704	30.72915	-134.59241	416.763	15.99206	-84.62724	381.42005	17.69468	-175.84745	403.74529	447.21545	167.01991	408.23802	355.79931	226.88981	482.74497	413.10859	122.29049	454.92201	284.04036	120.92461	401.56207	361.42446	128.89215	308.01527	148.51535	155.84768	293.49215	62.15072	111.79558	321.70086	69.21538	39.11753	250.87733	19.34359	68.2555	423.66292	28.75721	108.07536	413.99445	13.99021	52.73558	384.03079	15.53796	147.459	374.49944	687.20487	76.65799	375.93065	676.48719	-51.85174	398.33897	364.14024	81.57951	389.88668	362.99346	-78.93228	434.46944	730.76369	8.98332	305.14646	57.6247	75.29123	302.55279	62.11989	-108.62685	
8	0.07	265.13667	1100.51085	-11.81777	280.14452	915.72797	-7.11034	377.8929	1083.36677	-0.38151	435.462	723.56569	-77.35737	433.54618	737.96828	95.29788	296.35022	767.77343	0.38521	394.40128	431.1022	-157.16406	389.90745	380.19967	-217.77624	480.67973	390.5816	-122.5673	411.53208	279.15833	-137.35199	389.9262	368.75321	-125.57709	319.28183	159.89064	-183.84684	294.35645	68.61356	-144.91378	315.35516	71.43685	-70.77665	246.01944	20.46784	-110.39348	421.79981	30.73052	-134.58978	416.76003	15.9869	-84.62309	381.42188	17.69447	-175.84271	403.79338	447.20669	167.01286	408.26605	355.79822	226.88013	482.78068	413.09426	122.27751	454.943	284.03142	120.92074	401.59213	361.4198	128.88259	308.02784	148.51344	155.84361	293.49387	62.14862	111.79251	321.70842	69.2179	39.11332	250.87269	19.34382	68.25483	423.668	28.75449	108.07055	413.99641	13.98729	52.73503	384.03109	15.53488	147.45521	374.55613	687.19068	76.64564	375.98201	676.47136	-51.8554	398.36998	364.13387	81.56978	389.93569	362.96264	-78.93516	434.50409	730.76698	8.97025	305.15038	57.62509	75.28776	302.55864	62.1159	-108.62579	
9	0.08	265.08958	1100.47134	-11.70322	280.13673	915.68693	-7.01013	377.82656	1083.33734	-0.31437	435.49641	723.57263	-77.35794	433.58281	737.97657	95.2802	296.37681	767.72312	0.36271	394.44519	431.06024	-157.14812	389.95803	380.17241	-217.77505	480.72641	390.53434	-122.55613	411.56346	279.13216	-137.35243	389.97066	368.72427	-125.57624	319.30258	159.87705	-183.84755	294.36253	68.61087	-144.91185	315.36078	71.43628	-70.77364	246.01903	20.46277	-110.39523	421.80057	30.73066	-134.58482	416.75996	15.98314	-84.61815	381.4239	17.6962	-175.83745	403.84094	447.19849	167.00282	408.29897	355.79564	226.86842	482.82151	413.07954	122.26107	454.96571	284.02158	120.91342	401.62554	361.41551	128.87075	308.04218	148.51305	155.83744	293.49653	62.14635	111.78761	321.71464	69.22018	39.1096	250.87019	19.34562	68.25244	423.67204	28.75272	108.06735	413.99928	13.98653	52.73415	384.0309	15.53362	147.45056	374.61459	687.18008	76.63416	376.03883	676.45963	-51.85557	398.40363	364.12877	81.55789	389.97704	362.93285	-78.93442	434.53961	730.7746	8.96113	305.15404	57.62524	75.28365	302.56354	62.11502	-108.62327	
10	0.09	265.0432	1100.43397	-11.59329	280.13531	915.64656	-6.91285	377.76052	1083.31293	-0.24266	435.5318	723.58503	-77.3527	433.61593	737.98744	95.26404	296.40876	767.67426	0.34123	394.4896	431.02431	-157.12917	390.00045	380.14944	-217.77098	480.76479	390.49381	-122.54327	411.59419	279.10943	-137.35081	390.00883	368.69741	-125.57243	319.32033	159.86772	-183.84704	294.36586	68.61001	-144.90955	315.36497	71.44037	-70.76776	246.02413	20.4602	-110.40702	421.79945	30.72957	-134.57879	416.76344	15.98098	-84.61292	381.42645	17.70021	-175.83311	403.88685	447.18902	166.98849	408.3387	355.79013	226.854	482.86836	413.06277	122.2407	454.9919	284.00946	120.90105	401.66376	361.41009	128.85604	308.05916	148.51434	155.82864	293.49988	62.14602	111.78074	321.71922	69.22197	39.10629	250.86942	19.34913	68.2481	423.67439	28.75251	108.06556	414.0025	13.98832	52.73331	384.03038	15.53549	147.44519	374.67228	687.17287	76.62264	376.09822	676.45341	-51.85296	398.44114	364.12337	81.54323	390.01306	362.90403	-78.93086	434.57387	730.78624	8.95567	305.1571	57.62613	75.27882	302.56642	62.11747	-108.61917	
